<svg width="0" height="0" class="hidden">

  <!-- Heading -->

  <symbol fill="none" xmlns="http://www.w3.org/2000/svg" viewBox="0 0 24 24" id="h1">
    <g id="Edit / Heading_H1">
      <path id="Vector" d="M16 10L19 9L19 19M3 5V12M3 12V19M3 12H11M11 5V12M11 12V19"
        stroke="currentColor" stroke-width="2" stroke-linecap="round" stroke-linejoin="round"></path>
    </g>
  </symbol>
  <symbol fill="none" xmlns="http://www.w3.org/2000/svg" viewBox="0 0 24 24" id="h2">
    <g id="Edit / Heading_H2">
      <path id="Vector"
        d="M15 12.5V12C15 10.3431 16.3431 9 18 9H18.1716C19.7337 9 20.9996 10.2665 20.9996 11.8286C20.9996 12.5788 20.702 13.2982 20.1716 13.8286L15 19.0002L21 19M3 5V12M3 12V19M3 12H11M11 5V12M11 12V19"
        stroke="currentColor" stroke-width="2" stroke-linecap="round" stroke-linejoin="round"></path>
    </g>
  </symbol>
  <symbol fill="none" xmlns="http://www.w3.org/2000/svg" viewBox="0 0 24 24" id="h3">
    <g id="Edit / Heading_H3">
      <path id="Vector"
        d="M15 9H21L17 13H18C19.6569 13 21 14.3431 21 16C21 17.6569 19.6569 19 18 19C17.3793 19 16.7738 18.8077 16.2671 18.4492C15.7604 18.0907 15.3775 17.5838 15.1709 16.9985M3 5V12M3 12V19M3 12H11M11 5V12M11 12V19"
        stroke="currentColor" stroke-width="2" stroke-linecap="round" stroke-linejoin="round"></path>
    </g>
  </symbol>
  <symbol fill="none" xmlns="http://www.w3.org/2000/svg" viewBox="0 0 24 24" id="h4">
    <g id="Edit / Heading_H4">
      <path id="Vector"
        d="M18 9L15.5 17H20M20 17H21M20 17V14M20 17V19M3 5V12M3 12V19M3 12H11M11 5V12M11 12V19"
        stroke="currentColor" stroke-width="2" stroke-linecap="round" stroke-linejoin="round"></path>
    </g>
  </symbol>
  <!-- <symbol fill="none" xmlns="http://www.w3.org/2000/svg" viewBox="0 0 24 24" id="h5">
    <g id="Edit / Heading_H5">
      <path id="Vector"
        d="M21 9H17L15.75 14.0158C15.8285 13.9268 15.912 13.8429 16 13.7642C16.3509 13.4504 16.7731 13.2209
  17.2346 13.0991C17.9263 12.9166 18.6611 12.9876 19.3053 13.2987C19.9495 13.6099 20.4608 14.1414
  20.7479 14.7967C21.035 15.452 21.0788 16.188 20.8707 16.8725C20.6627 17.557 20.2165 18.1447
  19.6133 18.5295C19.0101 18.9142 18.2895 19.0704 17.5811 18.9704C16.8726 18.8705 16.2232 18.521
  15.75 17.9844M3 5V12M3 12V19M3 12H11M11 5V12M11 12V19"
        stroke="currentColor" stroke-width="2" stroke-linecap="round" stroke-linejoin="round"></path>
    </g>
  </symbol>
  <symbol fill="none" xmlns="http://www.w3.org/2000/svg" viewBox="0 0 24 24" id="h6">
    <g id="Edit / Heading_H6">
      <path id="Vector"
        d="M15.4024 14.5249C14.574 15.9516 15.0656 17.7759 16.5005 18.5997C17.9354 19.4234 19.7701 18.9346
  20.5986 17.5078C21.427 16.0811 20.9352 14.2571 19.5003 13.4334C18.0655 12.6097 16.2309 13.0982
  15.4024 14.5249ZM15.4024 14.5249L18.9998 8M3 5V12M3 12V19M3 12H11M11 5V12M11 12V19"
        stroke="currentColor" stroke-width="2" stroke-linecap="round" stroke-linejoin="round"></path>
    </g>
  </symbol> -->

  <!-- Quote -->

  <symbol fill="currentColor" xmlns="http://www.w3.org/2000/svg" viewBox="0 0 24 24"
    id="quote">
    <path
      d="M15 20a1 1 0 0 1-.386-1.922A8.726 8.726 0 0 0 20 10v-.5a2.5 2.5 0 1 0-2.5 2.5 1 1 0 0 1 0 2A4.5 4.5 0 1 1 22 9.5v.5a10.718 10.718 0 0 1-6.614 9.921A1 1 0 0 1 15 20zM5 20a1 1 0 0 1-.386-1.922A8.726 8.726 0 0 0 10 10v-.5A2.5 2.5 0 1 0 7.5 12a1 1 0 0 1 0 2A4.5 4.5 0 1 1 12 9.5v.5a10.718 10.718 0 0 1-6.614 9.921A1 1 0 0 1 5 20z"></path>
  </symbol>

  <!-- List -->

  <symbol fill="none" xmlns="http://www.w3.org/2000/svg" viewBox="0 0 24 24"
    id="bullet">
    <path
      d="M8 6.00067L21 6.00139M8 12.0007L21 12.0015M8 18.0007L21 18.0015M3.5 6H3.51M3.5 12H3.51M3.5 18H3.51M4 6C4 6.27614 3.77614 6.5 3.5 6.5C3.22386 6.5 3 6.27614 3 6C3 5.72386 3.22386 5.5 3.5 5.5C3.77614 5.5 4 5.72386 4 6ZM4 12C4 12.2761 3.77614 12.5 3.5 12.5C3.22386 12.5 3 12.2761 3 12C3 11.7239 3.22386 11.5 3.5 11.5C3.77614 11.5 4 11.7239 4 12ZM4 18C4 18.2761 3.77614 18.5 3.5 18.5C3.22386 18.5 3 18.2761 3 18C3 17.7239 3.22386 17.5 3.5 17.5C3.77614 17.5 4 17.7239 4 18Z"
      stroke="currentColor" stroke-width="2" stroke-linecap="round" stroke-linejoin="round"></path>
  </symbol>
  <symbol fill="none" xmlns="http://www.w3.org/2000/svg" viewBox="0 0 24 24"
    id="check">
    <path
      d="M11 6L21 6.00072M11 12L21 12.0007M11 18L21 18.0007M3 11.9444L4.53846 13.5L8 10M3 5.94444L4.53846 7.5L8 4M4.5 18H4.51M5 18C5 18.2761 4.77614 18.5 4.5 18.5C4.22386 18.5 4 18.2761 4 18C4 17.7239 4.22386 17.5 4.5 17.5C4.77614 17.5 5 17.7239 5 18Z"
      stroke="currentColor" stroke-width="2" stroke-linecap="round" stroke-linejoin="round"></path>
  </symbol>
  <symbol fill="none" xmlns="http://www.w3.org/2000/svg" viewBox="0 0 24 24"
    id="number">
    <path
      d="M10 6L21 6.00066M10 12L21 12.0007M10 18L21 18.0007M3 5L5 4V10M5 10H3M5 10H7M7 20H3L6.41274 17.0139C6.78593 16.6873 7 16.2156 7 15.7197C7 14.7699 6.23008 14 5.28033 14H5C4.06808 14 3.28503 14.6374 3.06301 15.5"
      stroke="currentColor" stroke-width="2" stroke-linecap="round" stroke-linejoin="round"></path>
  </symbol>

  <!-- Chevron -->

  <symbol xmlns="http://www.w3.org/2000/svg" fill="none" viewBox="0 0 20 20"
    id="chevron-left">
    <path stroke="currentColor" stroke-linecap="round" stroke-linejoin="round" stroke-width="2"
      d="M13 4l-6 6 6 6"></path>
  </symbol>
  <symbol xmlns="http://www.w3.org/2000/svg" fill="none" viewBox="0 0 20 20"
    id="chevron-right">
    <path stroke="currentColor" stroke-linecap="round" stroke-linejoin="round" stroke-width="2"
      d="M7 16l6-6-6-6"></path>
  </symbol>
  <symbol xmlns="http://www.w3.org/2000/svg" fill="none" viewBox="0 0 20 20"
    id="chevron-down">
    <path stroke="currentColor" stroke-linecap="round" stroke-linejoin="round" stroke-width="2"
      d="M4 7l6 6 6-6"></path>
  </symbol>
  <symbol xmlns="http://www.w3.org/2000/svg" fill="none" viewBox="0 0 20 20"
    id="chevron-up">
    <path stroke="currentColor" stroke-linecap="round" stroke-linejoin="round" stroke-width="2"
      d="M16 13l-6-6-6 6"></path>
  </symbol>

  <!-- Code Block -->

  <symbol fill="none" xmlns="http://www.w3.org/2000/svg" viewBox="0 0 24 24"
    id="code">
    <path
      d="M14.5 15L17.5 12L14.5 9M9.5 9L6.5 12L9.5 15M7.8 21H16.2C17.8802 21 18.7202 21 19.362 20.673C19.9265 20.3854 20.3854 19.9265 20.673 19.362C21 18.7202 21 17.8802 21 16.2V7.8C21 6.11984 21 5.27976 20.673 4.63803C20.3854 4.07354 19.9265 3.6146 19.362 3.32698C18.7202 3 17.8802 3 16.2 3H7.8C6.11984 3 5.27976 3 4.63803 3.32698C4.07354 3.6146 3.6146 4.07354 3.32698 4.63803C3 5.27976 3 6.11984 3 7.8V16.2C3 17.8802 3 18.7202 3.32698 19.362C3.6146 19.9265 4.07354 20.3854 4.63803 20.673C5.27976 21 6.11984 21 7.8 21Z"
      stroke="currentColor" stroke-width="2" stroke-linecap="round" stroke-linejoin="round"></path>
  </symbol>

  <!-- Code -->

  <symbol fill="none" xmlns="http://www.w3.org/2000/svg" viewBox="0 0 24 24"
    id="text-code">
    <path d="M16 18L22 12L16 6M8 6L2 12L8 18" stroke="currentColor" stroke-width="2"
      stroke-linecap="round" stroke-linejoin="round"></path>
  </symbol>

  <!-- Bold -->

  <symbol fill="currentColor" xmlns="http://www.w3.org/2000/svg" enable-background="new 0 0 52 52"
    xml:space="preserve" viewBox="0 0 52 52" id="text-bold">
      <path d="M41,19c0-6-4.8-11-10.5-11H14c-1.1,0-2,0.9-2,2v33c0,1.1,0.9,2,2,2h16.5C36.2,45,41,40,41,34
    c0-2.9-1.1-5.5-2.9-7.5C39.9,24.5,41,21.9,41,19z M30.5,38H19v-8h11.5c1.9,0,3.6,1.9,3.6,4S32.4,38,30.5,38z M30.5,23H19v-8h11.5
    c1.9,0,3.6,1.9,3.6,4S32.4,23,30.5,23z"></path>
  </symbol>

  <!-- underline -->

  <symbol xmlns="http://www.w3.org/2000/svg" viewBox="0 0 24 24" id="text-underline">
    <path
      d="M17,21 L7,21 C6.44771525,21 6,20.5522847 6,20 C6,19.4477153 6.44771525,19 7,19 L17,19 C17.5522847,19 18,19.4477153 18,20 C18,20.5522847 17.5522847,21 17,21 Z M18,4 L18,11 C18,14.3137085 15.3137085,17 12,17 C8.6862915,17 6,14.3137085 6,11 L6,4 C6,3.44771525 6.44771525,3 7,3 C7.55228475,3 8,3.44771525 8,4 L8,11 C8,13.21 9.78999996,15 12,15 C14.21,15 16,13.21 16,11 L16,4 C16,3.44771525 16.4477153,3 17,3 C17.5522847,3 18,3.44771525 18,4 Z"
      fill="currentColor"
      stroke-width="1"></path>
  </symbol>

  <!-- strikethorugh -->

  <symbol fill="none" xmlns="http://www.w3.org/2000/svg" viewBox="0 0 24 24"
    id="text-strikethrough">
    <path id="Vector"
      d="M12.0005 12.0001C12.8959 12.0001 13.7749 12.1925 14.5457 12.5571C14.8939 12.7218 15.2146 12.9192 15.5009 13.1437C15.8484 13.4162 16.1457 13.729 16.3822 14.0732C16.8136 14.7009 17.0263 15.4096 16.9982 16.1256C16.97 16.8416 16.702 17.5385 16.2222 18.1433C15.7424 18.7481 15.0684 19.2386 14.2705 19.5638C13.4727 19.889 12.5802 20.0373 11.6865 19.9923C10.7928 19.9473 9.93104 19.7108 9.19043 19.3082C8.44982 18.9055 7.85782 18.3514 7.47656 17.7032M12.0005 12.0001H4M12.0005 12.0001H20M16.5243 6.29718C16.143 5.649 15.5512 5.09462 14.8105 4.69197C14.0699 4.28932 13.2076 4.05287 12.314 4.00789C11.4203 3.96291 10.5278 4.11091 9.72998 4.43613C8.93213 4.76135 8.25812 5.25205 7.77832 5.85689C7.29852 6.46173 7.03057 7.15885 7.00244 7.87485C6.9942 8.08463 7.00669 8.29345 7.03924 8.50014"
      stroke="currentColor" stroke-width="2" stroke-linecap="round" stroke-linejoin="round"></path>
  </symbol>

  <!-- italic -->

  <symbol fill="none" xmlns="http://www.w3.org/2000/svg" viewBox="0 0 24 24"
    id="text-italic">
    <path
      d="M15.0234 3.00003H18C18.5523 3.00003 19 3.44774 19 4.00003C19 4.55231 18.5523 5.00003 18 5.00003H15.693L10.443 19H12C12.5523 19 13 19.4477 13 20C13 20.5523 12.5523 21 12 21H9.02307C9.00764 21.0004 8.99218 21.0004 8.97669 21H6C5.44772 21 5 20.5523 5 20C5 19.4477 5.44772 19 6 19H8.30703L13.557 5.00003H12C11.4477 5.00003 11 4.55231 11 4.00003C11 3.44774 11.4477 3.00003 12 3.00003H14.977C14.9924 2.99967 15.0079 2.99966 15.0234 3.00003Z"
      fill="currentColor"></path>
  </symbol>

  <!-- superscript -->

  <symbol fill="none" xmlns="http://www.w3.org/2000/svg" viewBox="0 0 24 24"
    id="text-superscript">
    <path fill-rule="evenodd" clip-rule="evenodd"
      d="M17.3181 6.04842C17.6174 5.75945 18.1021 5.79767 18.3524 6.12997C18.5536 6.39707 18.5353 6.76978 18.3088 7.01579L15.2643 10.3227C14.9955 10.6147 14.9248 11.0382 15.0842 11.4017C15.2437 11.7652 15.6031 12 16 12H20C20.5523 12 21 11.5523 21 11C21 10.4477 20.5523 10 20 10H18.2799L19.7802 8.37041C20.6607 7.41399 20.7321 5.96504 19.95 4.92665C18.9769 3.63478 17.0925 3.48621 15.929 4.60962L15.3054 5.21165C14.9081 5.59526 14.897 6.22833 15.2806 6.62564C15.6642 7.02296 16.2973 7.03406 16.6946 6.65045L17.3181 6.04842ZM4.7433 8.33104C4.37384 7.92053 3.74155 7.88725 3.33104 8.25671C2.92053 8.62616 2.88726 9.25845 3.25671 9.66896L7.15465 14L3.25671 18.331C2.88726 18.7415 2.92053 19.3738 3.33104 19.7433C3.74155 20.1128 4.37384 20.0795 4.7433 19.669L8.50001 15.4948L12.2567 19.669C12.6262 20.0795 13.2585 20.1128 13.669 19.7433C14.0795 19.3738 14.1128 18.7415 13.7433 18.331L9.84537 14L13.7433 9.66896C14.1128 9.25845 14.0795 8.62616 13.669 8.25671C13.2585 7.88725 12.6262 7.92053 12.2567 8.33104L8.50001 12.5052L4.7433 8.33104Z"
      fill="currentColor"></path>
  </symbol>

  <!-- subscript -->

  <symbol fill="none" xmlns="http://www.w3.org/2000/svg" viewBox="0 0 24 24"
    id="text-subscript">
    <path fill-rule="evenodd" clip-rule="evenodd"
      d="M4.7433 5.33104C4.37384 4.92053 3.74155 4.88726 3.33104 5.25671C2.92053 5.62617 2.88726 6.25846 3.25671 6.66897L7.15465 11L3.25671 15.331C2.88726 15.7416 2.92053 16.3738 3.33104 16.7433C3.74155 17.1128 4.37384 17.0795 4.7433 16.669L8.50001 12.4949L12.2567 16.669C12.6262 17.0795 13.2585 17.1128 13.669 16.7433C14.0795 16.3738 14.1128 15.7416 13.7433 15.331L9.84537 11L13.7433 6.66897C14.1128 6.25846 14.0795 5.62617 13.669 5.25671C13.2585 4.88726 12.6262 4.92053 12.2567 5.33104L8.50001 9.50516L4.7433 5.33104ZM17.3181 14.0484C17.6174 13.7595 18.1021 13.7977 18.3524 14.13C18.5536 14.3971 18.5353 14.7698 18.3088 15.0158L15.2643 18.3227C14.9955 18.6147 14.9248 19.0382 15.0842 19.4017C15.2437 19.7652 15.6031 20 16 20H20C20.5523 20 21 19.5523 21 19C21 18.4477 20.5523 18 20 18H18.2799L19.7802 16.3704C20.6607 15.414 20.7321 13.965 19.95 12.9267C18.9769 11.6348 17.0925 11.4862 15.929 12.6096L15.3054 13.2116C14.9081 13.5953 14.897 14.2283 15.2806 14.6256C15.6642 15.023 16.2973 15.0341 16.6946 14.6505L17.3181 14.0484Z"
      fill="currentColor"></path>
  </symbol>

</svg>