<svg width="0" height="0" class="hidden">

  <!-- Heading -->

  <symbol fill="none" xmlns="http://www.w3.org/2000/svg" viewBox="0 0 24 24" id="h1">
    <g id="Edit / Heading_H1">
      <path id="Vector" d="M16 10L19 9L19 19M3 5V12M3 12V19M3 12H11M11 5V12M11 12V19"
        stroke="currentColor" stroke-width="2" stroke-linecap="round" stroke-linejoin="round"></path>
    </g>
  </symbol>
  <symbol fill="none" xmlns="http://www.w3.org/2000/svg" viewBox="0 0 24 24" id="h2">
    <g id="Edit / Heading_H2">
      <path id="Vector"
        d="M15 12.5V12C15 10.3431 16.3431 9 18 9H18.1716C19.7337 9 20.9996 10.2665 20.9996 11.8286C20.9996 12.5788 20.702 13.2982 20.1716 13.8286L15 19.0002L21 19M3 5V12M3 12V19M3 12H11M11 5V12M11 12V19"
        stroke="currentColor" stroke-width="2" stroke-linecap="round" stroke-linejoin="round"></path>
    </g>
  </symbol>
  <symbol fill="none" xmlns="http://www.w3.org/2000/svg" viewBox="0 0 24 24" id="h3">
    <g id="Edit / Heading_H3">
      <path id="Vector"
        d="M15 9H21L17 13H18C19.6569 13 21 14.3431 21 16C21 17.6569 19.6569 19 18 19C17.3793 19 16.7738 18.8077 16.2671 18.4492C15.7604 18.0907 15.3775 17.5838 15.1709 16.9985M3 5V12M3 12V19M3 12H11M11 5V12M11 12V19"
        stroke="currentColor" stroke-width="2" stroke-linecap="round" stroke-linejoin="round"></path>
    </g>
  </symbol>
  <symbol fill="none" xmlns="http://www.w3.org/2000/svg" viewBox="0 0 24 24" id="h4">
    <g id="Edit / Heading_H4">
      <path id="Vector"
        d="M18 9L15.5 17H20M20 17H21M20 17V14M20 17V19M3 5V12M3 12V19M3 12H11M11 5V12M11 12V19"
        stroke="currentColor" stroke-width="2" stroke-linecap="round" stroke-linejoin="round"></path>
    </g>
  </symbol>
  <!-- <symbol fill="none" xmlns="http://www.w3.org/2000/svg" viewBox="0 0 24 24" id="h5">
    <g id="Edit / Heading_H5">
      <path id="Vector"
        d="M21 9H17L15.75 14.0158C15.8285 13.9268 15.912 13.8429 16 13.7642C16.3509 13.4504 16.7731 13.2209
  17.2346 13.0991C17.9263 12.9166 18.6611 12.9876 19.3053 13.2987C19.9495 13.6099 20.4608 14.1414
  20.7479 14.7967C21.035 15.452 21.0788 16.188 20.8707 16.8725C20.6627 17.557 20.2165 18.1447
  19.6133 18.5295C19.0101 18.9142 18.2895 19.0704 17.5811 18.9704C16.8726 18.8705 16.2232 18.521
  15.75 17.9844M3 5V12M3 12V19M3 12H11M11 5V12M11 12V19"
        stroke="currentColor" stroke-width="2" stroke-linecap="round" stroke-linejoin="round"></path>
    </g>
  </symbol>
  <symbol fill="none" xmlns="http://www.w3.org/2000/svg" viewBox="0 0 24 24" id="h6">
    <g id="Edit / Heading_H6">
      <path id="Vector"
        d="M15.4024 14.5249C14.574 15.9516 15.0656 17.7759 16.5005 18.5997C17.9354 19.4234 19.7701 18.9346
  20.5986 17.5078C21.427 16.0811 20.9352 14.2571 19.5003 13.4334C18.0655 12.6097 16.2309 13.0982
  15.4024 14.5249ZM15.4024 14.5249L18.9998 8M3 5V12M3 12V19M3 12H11M11 5V12M11 12V19"
        stroke="currentColor" stroke-width="2" stroke-linecap="round" stroke-linejoin="round"></path>
    </g>
  </symbol> -->

  <!-- Quote -->

  <symbol fill="currentColor" xmlns="http://www.w3.org/2000/svg" viewBox="0 0 24 24"
    id="quote">
    <path
      d="M15 20a1 1 0 0 1-.386-1.922A8.726 8.726 0 0 0 20 10v-.5a2.5 2.5 0 1 0-2.5 2.5 1 1 0 0 1 0 2A4.5 4.5 0 1 1 22 9.5v.5a10.718 10.718 0 0 1-6.614 9.921A1 1 0 0 1 15 20zM5 20a1 1 0 0 1-.386-1.922A8.726 8.726 0 0 0 10 10v-.5A2.5 2.5 0 1 0 7.5 12a1 1 0 0 1 0 2A4.5 4.5 0 1 1 12 9.5v.5a10.718 10.718 0 0 1-6.614 9.921A1 1 0 0 1 5 20z"></path>
  </symbol>

  <!-- List -->

  <symbol fill="none" xmlns="http://www.w3.org/2000/svg" viewBox="0 0 24 24"
    id="bullet">
    <path
      d="M8 6.00067L21 6.00139M8 12.0007L21 12.0015M8 18.0007L21 18.0015M3.5 6H3.51M3.5 12H3.51M3.5 18H3.51M4 6C4 6.27614 3.77614 6.5 3.5 6.5C3.22386 6.5 3 6.27614 3 6C3 5.72386 3.22386 5.5 3.5 5.5C3.77614 5.5 4 5.72386 4 6ZM4 12C4 12.2761 3.77614 12.5 3.5 12.5C3.22386 12.5 3 12.2761 3 12C3 11.7239 3.22386 11.5 3.5 11.5C3.77614 11.5 4 11.7239 4 12ZM4 18C4 18.2761 3.77614 18.5 3.5 18.5C3.22386 18.5 3 18.2761 3 18C3 17.7239 3.22386 17.5 3.5 17.5C3.77614 17.5 4 17.7239 4 18Z"
      stroke="currentColor" stroke-width="2" stroke-linecap="round" stroke-linejoin="round"></path>
  </symbol>
  <symbol fill="none" xmlns="http://www.w3.org/2000/svg" viewBox="0 0 24 24"
    id="check">
    <path
      d="M11 6L21 6.00072M11 12L21 12.0007M11 18L21 18.0007M3 11.9444L4.53846 13.5L8 10M3 5.94444L4.53846 7.5L8 4M4.5 18H4.51M5 18C5 18.2761 4.77614 18.5 4.5 18.5C4.22386 18.5 4 18.2761 4 18C4 17.7239 4.22386 17.5 4.5 17.5C4.77614 17.5 5 17.7239 5 18Z"
      stroke="currentColor" stroke-width="2" stroke-linecap="round" stroke-linejoin="round"></path>
  </symbol>
  <symbol fill="none" xmlns="http://www.w3.org/2000/svg" viewBox="0 0 24 24"
    id="number">
    <path
      d="M10 6L21 6.00066M10 12L21 12.0007M10 18L21 18.0007M3 5L5 4V10M5 10H3M5 10H7M7 20H3L6.41274 17.0139C6.78593 16.6873 7 16.2156 7 15.7197C7 14.7699 6.23008 14 5.28033 14H5C4.06808 14 3.28503 14.6374 3.06301 15.5"
      stroke="currentColor" stroke-width="2" stroke-linecap="round" stroke-linejoin="round"></path>
  </symbol>

  <!-- Chevron -->

  <symbol xmlns="http://www.w3.org/2000/svg" fill="none" viewBox="0 0 20 20"
    id="chevron-left">
    <path stroke="currentColor" stroke-linecap="round" stroke-linejoin="round" stroke-width="2"
      d="M13 4l-6 6 6 6"></path>
  </symbol>
  <symbol xmlns="http://www.w3.org/2000/svg" fill="none" viewBox="0 0 20 20"
    id="chevron-right">
    <path stroke="currentColor" stroke-linecap="round" stroke-linejoin="round" stroke-width="2"
      d="M7 16l6-6-6-6"></path>
  </symbol>
  <symbol xmlns="http://www.w3.org/2000/svg" fill="none" viewBox="0 0 20 20"
    id="chevron-down">
    <path stroke="currentColor" stroke-linecap="round" stroke-linejoin="round" stroke-width="2"
      d="M4 7l6 6 6-6"></path>
  </symbol>
  <symbol xmlns="http://www.w3.org/2000/svg" fill="none" viewBox="0 0 20 20"
    id="chevron-up">
    <path stroke="currentColor" stroke-linecap="round" stroke-linejoin="round" stroke-width="2"
      d="M16 13l-6-6-6 6"></path>
  </symbol>

  <!-- Code Block -->

  <symbol fill="none" xmlns="http://www.w3.org/2000/svg" viewBox="0 0 24 24"
    id="code">
    <path
      d="M14.5 15L17.5 12L14.5 9M9.5 9L6.5 12L9.5 15M7.8 21H16.2C17.8802 21 18.7202 21 19.362 20.673C19.9265 20.3854 20.3854 19.9265 20.673 19.362C21 18.7202 21 17.8802 21 16.2V7.8C21 6.11984 21 5.27976 20.673 4.63803C20.3854 4.07354 19.9265 3.6146 19.362 3.32698C18.7202 3 17.8802 3 16.2 3H7.8C6.11984 3 5.27976 3 4.63803 3.32698C4.07354 3.6146 3.6146 4.07354 3.32698 4.63803C3 5.27976 3 6.11984 3 7.8V16.2C3 17.8802 3 18.7202 3.32698 19.362C3.6146 19.9265 4.07354 20.3854 4.63803 20.673C5.27976 21 6.11984 21 7.8 21Z"
      stroke="currentColor" stroke-width="2" stroke-linecap="round" stroke-linejoin="round"></path>
  </symbol>

  <!-- Code -->

  <symbol fill="none" xmlns="http://www.w3.org/2000/svg" viewBox="0 0 24 24"
    id="text-code">
    <path d="M16 18L22 12L16 6M8 6L2 12L8 18" stroke="currentColor" stroke-width="2"
      stroke-linecap="round" stroke-linejoin="round"></path>
  </symbol>

  <!-- Bold -->

  <symbol fill="currentColor" xmlns="http://www.w3.org/2000/svg" enable-background="new 0 0 52 52"
    xml:space="preserve" viewBox="0 0 52 52" id="text-bold">
      <path d="M41,19c0-6-4.8-11-10.5-11H14c-1.1,0-2,0.9-2,2v33c0,1.1,0.9,2,2,2h16.5C36.2,45,41,40,41,34
    c0-2.9-1.1-5.5-2.9-7.5C39.9,24.5,41,21.9,41,19z M30.5,38H19v-8h11.5c1.9,0,3.6,1.9,3.6,4S32.4,38,30.5,38z M30.5,23H19v-8h11.5
    c1.9,0,3.6,1.9,3.6,4S32.4,23,30.5,23z"></path>
  </symbol>

  <!-- underline -->

  <symbol xmlns="http://www.w3.org/2000/svg" viewBox="0 0 24 24" id="text-underline">
    <path
      d="M17,21 L7,21 C6.44771525,21 6,20.5522847 6,20 C6,19.4477153 6.44771525,19 7,19 L17,19 C17.5522847,19 18,19.4477153 18,20 C18,20.5522847 17.5522847,21 17,21 Z M18,4 L18,11 C18,14.3137085 15.3137085,17 12,17 C8.6862915,17 6,14.3137085 6,11 L6,4 C6,3.44771525 6.44771525,3 7,3 C7.55228475,3 8,3.44771525 8,4 L8,11 C8,13.21 9.78999996,15 12,15 C14.21,15 16,13.21 16,11 L16,4 C16,3.44771525 16.4477153,3 17,3 C17.5522847,3 18,3.44771525 18,4 Z"
      fill="currentColor"
      stroke-width="1"></path>
  </symbol>

  <!-- strikethorugh -->

  <symbol fill="none" xmlns="http://www.w3.org/2000/svg" viewBox="0 0 24 24"
    id="text-strikethrough">
    <path id="Vector"
      d="M12.0005 12.0001C12.8959 12.0001 13.7749 12.1925 14.5457 12.5571C14.8939 12.7218 15.2146 12.9192 15.5009 13.1437C15.8484 13.4162 16.1457 13.729 16.3822 14.0732C16.8136 14.7009 17.0263 15.4096 16.9982 16.1256C16.97 16.8416 16.702 17.5385 16.2222 18.1433C15.7424 18.7481 15.0684 19.2386 14.2705 19.5638C13.4727 19.889 12.5802 20.0373 11.6865 19.9923C10.7928 19.9473 9.93104 19.7108 9.19043 19.3082C8.44982 18.9055 7.85782 18.3514 7.47656 17.7032M12.0005 12.0001H4M12.0005 12.0001H20M16.5243 6.29718C16.143 5.649 15.5512 5.09462 14.8105 4.69197C14.0699 4.28932 13.2076 4.05287 12.314 4.00789C11.4203 3.96291 10.5278 4.11091 9.72998 4.43613C8.93213 4.76135 8.25812 5.25205 7.77832 5.85689C7.29852 6.46173 7.03057 7.15885 7.00244 7.87485C6.9942 8.08463 7.00669 8.29345 7.03924 8.50014"
      stroke="currentColor" stroke-width="2" stroke-linecap="round" stroke-linejoin="round"></path>
  </symbol>

  <!-- italic -->

  <symbol fill="none" xmlns="http://www.w3.org/2000/svg" viewBox="0 0 24 24"
    id="text-italic">
    <path
      d="M15.0234 3.00003H18C18.5523 3.00003 19 3.44774 19 4.00003C19 4.55231 18.5523 5.00003 18 5.00003H15.693L10.443 19H12C12.5523 19 13 19.4477 13 20C13 20.5523 12.5523 21 12 21H9.02307C9.00764 21.0004 8.99218 21.0004 8.97669 21H6C5.44772 21 5 20.5523 5 20C5 19.4477 5.44772 19 6 19H8.30703L13.557 5.00003H12C11.4477 5.00003 11 4.55231 11 4.00003C11 3.44774 11.4477 3.00003 12 3.00003H14.977C14.9924 2.99967 15.0079 2.99966 15.0234 3.00003Z"
      fill="currentColor"></path>
  </symbol>

  <!-- superscript -->

  <symbol fill="none" xmlns="http://www.w3.org/2000/svg" viewBox="0 0 24 24"
    id="text-superscript">
    <path fill-rule="evenodd" clip-rule="evenodd"
      d="M17.3181 6.04842C17.6174 5.75945 18.1021 5.79767 18.3524 6.12997C18.5536 6.39707 18.5353 6.76978 18.3088 7.01579L15.2643 10.3227C14.9955 10.6147 14.9248 11.0382 15.0842 11.4017C15.2437 11.7652 15.6031 12 16 12H20C20.5523 12 21 11.5523 21 11C21 10.4477 20.5523 10 20 10H18.2799L19.7802 8.37041C20.6607 7.41399 20.7321 5.96504 19.95 4.92665C18.9769 3.63478 17.0925 3.48621 15.929 4.60962L15.3054 5.21165C14.9081 5.59526 14.897 6.22833 15.2806 6.62564C15.6642 7.02296 16.2973 7.03406 16.6946 6.65045L17.3181 6.04842ZM4.7433 8.33104C4.37384 7.92053 3.74155 7.88725 3.33104 8.25671C2.92053 8.62616 2.88726 9.25845 3.25671 9.66896L7.15465 14L3.25671 18.331C2.88726 18.7415 2.92053 19.3738 3.33104 19.7433C3.74155 20.1128 4.37384 20.0795 4.7433 19.669L8.50001 15.4948L12.2567 19.669C12.6262 20.0795 13.2585 20.1128 13.669 19.7433C14.0795 19.3738 14.1128 18.7415 13.7433 18.331L9.84537 14L13.7433 9.66896C14.1128 9.25845 14.0795 8.62616 13.669 8.25671C13.2585 7.88725 12.6262 7.92053 12.2567 8.33104L8.50001 12.5052L4.7433 8.33104Z"
      fill="currentColor"></path>
  </symbol>

  <!-- subscript -->

  <symbol fill="none" xmlns="http://www.w3.org/2000/svg" viewBox="0 0 24 24"
    id="text-subscript">
    <path fill-rule="evenodd" clip-rule="evenodd"
      d="M4.7433 5.33104C4.37384 4.92053 3.74155 4.88726 3.33104 5.25671C2.92053 5.62617 2.88726 6.25846 3.25671 6.66897L7.15465 11L3.25671 15.331C2.88726 15.7416 2.92053 16.3738 3.33104 16.7433C3.74155 17.1128 4.37384 17.0795 4.7433 16.669L8.50001 12.4949L12.2567 16.669C12.6262 17.0795 13.2585 17.1128 13.669 16.7433C14.0795 16.3738 14.1128 15.7416 13.7433 15.331L9.84537 11L13.7433 6.66897C14.1128 6.25846 14.0795 5.62617 13.669 5.25671C13.2585 4.88726 12.6262 4.92053 12.2567 5.33104L8.50001 9.50516L4.7433 5.33104ZM17.3181 14.0484C17.6174 13.7595 18.1021 13.7977 18.3524 14.13C18.5536 14.3971 18.5353 14.7698 18.3088 15.0158L15.2643 18.3227C14.9955 18.6147 14.9248 19.0382 15.0842 19.4017C15.2437 19.7652 15.6031 20 16 20H20C20.5523 20 21 19.5523 21 19C21 18.4477 20.5523 18 20 18H18.2799L19.7802 16.3704C20.6607 15.414 20.7321 13.965 19.95 12.9267C18.9769 11.6348 17.0925 11.4862 15.929 12.6096L15.3054 13.2116C14.9081 13.5953 14.897 14.2283 15.2806 14.6256C15.6642 15.023 16.2973 15.0341 16.6946 14.6505L17.3181 14.0484Z"
      fill="currentColor"></path>
  </symbol>

  <!-- write -->

  <symbol fill="none" xmlns="http://www.w3.org/2000/svg" viewBox="0 0 24 24" id="write">
    <path fill-rule="evenodd" clip-rule="evenodd"
      d="M13.1739 3.5968C13.8662 3.2047 14.686 3.10369 15.4528 3.31598C15.7928 3.41011 16.0833 3.57409 16.3571 3.7593C16.6172 3.9352 16.9155 4.16808 17.2613 4.43799L17.3117 4.47737C17.6575 4.74728 17.9559 4.98016 18.1897 5.18977C18.4358 5.41046 18.6654 5.65248 18.8393 5.95945C19.2314 6.65177 19.3324 7.47151 19.1201 8.23831C19.026 8.5783 18.862 8.86883 18.6768 9.14267C18.5009 9.40276 18.268 9.70112 17.998 10.0469L10.8953 19.1462C10.8773 19.1692 10.8596 19.1919 10.8421 19.2144C10.5087 19.6419 10.2566 19.9651 9.9445 20.2306C9.68036 20.4553 9.38811 20.6447 9.07512 20.794C8.70535 20.9704 8.30733 21.0685 7.78084 21.1983C7.75324 21.2051 7.72528 21.212 7.69696 21.219L5.57214 21.7435C5.42499 21.7799 5.25702 21.8215 5.10885 21.8442C4.94367 21.8696 4.68789 21.8926 4.40539 21.8022C4.06579 21.6934 3.77603 21.4672 3.58809 21.1642C3.43175 20.9121 3.39197 20.6584 3.3765 20.492C3.36262 20.3427 3.36213 20.1697 3.3617 20.0181C3.36167 20.0087 3.36165 19.9994 3.36162 19.9902L3.35475 17.8295C3.35465 17.8003 3.35455 17.7715 3.35445 17.7431C3.3525 17.2009 3.35103 16.7909 3.4324 16.3894C3.50128 16.0495 3.61406 15.72 3.76791 15.4093C3.94967 15.0421 4.20204 14.7191 4.53586 14.2918C4.55336 14.2694 4.57109 14.2467 4.58905 14.2237L11.6918 5.12435C11.9617 4.77856 12.1946 4.48019 12.4042 4.2464C12.6249 4.00025 12.8669 3.77065 13.1739 3.5968ZM14.9191 5.24347C14.6635 5.17271 14.3903 5.20638 14.1595 5.33708C14.1203 5.35928 14.0459 5.41135 13.8934 5.5815C13.7348 5.75836 13.5438 6.00211 13.2487 6.38018L16.4018 8.84145C16.697 8.46338 16.887 8.21896 17.0201 8.02221C17.1482 7.83291 17.1806 7.74808 17.1926 7.70467C17.2634 7.44907 17.2297 7.17583 17.099 6.94505C17.0768 6.90586 17.0247 6.83145 16.8546 6.6789C16.6777 6.52033 16.434 6.32938 16.0559 6.03426C15.6778 5.73914 15.4334 5.54904 15.2367 5.41597C15.0474 5.28794 14.9625 5.25549 14.9191 5.24347ZM15.1712 10.418L12.0181 7.95674L6.16561 15.4543C5.75585 15.9792 5.6403 16.135 5.56031 16.2966C5.48339 16.452 5.42699 16.6167 5.39256 16.7866C5.35675 16.9633 5.35262 17.1572 5.35474 17.8231L5.36082 19.7357L7.2176 19.2773C7.86411 19.1177 8.05119 19.0666 8.21391 18.9889C8.37041 18.9143 8.51653 18.8196 8.64861 18.7072C8.78593 18.5904 8.90897 18.4405 9.31872 17.9156L15.1712 10.418ZM12 21C12 20.4477 12.4477 20 13 20H20C20.5523 20 21 20.4477 21 21C21 21.5523 20.5523 22 20 22H13C12.4477 22 12 21.5523 12 21Z"
      fill="currentColor"></path>
  </symbol>

  <!-- delete -->

  <symbol fill="none" xmlns="http://www.w3.org/2000/svg" viewBox="0 0 24 24"
    id="delete">
    <path d="M10 12V17" stroke="currentColor" stroke-width="2" stroke-linecap="round"
      stroke-linejoin="round"></path>
    <path d="M14 12V17" stroke="currentColor" stroke-width="2" stroke-linecap="round"
      stroke-linejoin="round"></path>
    <path d="M4 7H20" stroke="currentColor" stroke-width="2" stroke-linecap="round"
      stroke-linejoin="round"></path>
    <path d="M6 10V18C6 19.6569 7.34315 21 9 21H15C16.6569 21 18 19.6569 18 18V10"
      stroke="currentColor"
      stroke-width="2" stroke-linecap="round" stroke-linejoin="round"></path>
    <path d="M9 5C9 3.89543 9.89543 3 11 3H13C14.1046 3 15 3.89543 15 5V7H9V5Z"
      stroke="currentColor"
      stroke-width="2" stroke-linecap="round" stroke-linejoin="round"></path>
  </symbol>

  <!-- add -->

  <symbol xmlns="http://www.w3.org/2000/svg" viewBox="0 0 24 24" id="add">
    <line fill="none" stroke="currentColor" stroke-linecap="round" stroke-linejoin="round"
      stroke-width="2" x1="12" x2="12" y1="19" y2="5"></line>
    <line fill="none" stroke="currentColor" stroke-linecap="round" stroke-linejoin="round"
      stroke-width="2" x1="5" x2="19" y1="12" y2="12"></line>
  </symbol>

  <!-- add file -->

  <symbol fill="none" xmlns="http://www.w3.org/2000/svg" viewBox="0 0 24 24"
    id="add-file">
    <path
      d="M2 12C2 7.28595 2 4.92893 3.46447 3.46447C4.92893 2 7.28595 2 12 2C16.714 2 19.0711 2 20.5355 3.46447C22 4.92893 22 7.28595 22 12C22 16.714 22 19.0711 20.5355 20.5355C19.0711 22 16.714 22 12 22C7.28595 22 4.92893 22 3.46447 20.5355C2 19.0711 2 16.714 2 12Z"
      stroke="currentColor" stroke-width="1.5"></path>
    <path d="M15 12L12 12M12 12L9 12M12 12L12 9M12 12L12 15" stroke="currentColor"
      stroke-width="1.5"
      stroke-linecap="round"></path>
  </symbol>

  <!-- cancel -->

  <svg width="0" height="0" class="hidden">
    <symbol fill="none" xmlns="http://www.w3.org/2000/svg" viewBox="0 0 24 24"
      id="cancel">
      <path
        d="M6.75827 17.2426L12.0009 12M17.2435 6.75736L12.0009 12M12.0009 12L6.75827 6.75736M12.0009 12L17.2435 17.2426"
        stroke="currentColor" stroke-width="2" stroke-linecap="round" stroke-linejoin="round"></path>
    </symbol>
  </svg>

  <!-- confirm -->

  <symbol fill="none" xmlns="http://www.w3.org/2000/svg" viewBox="0 0 24 24" id="confirm">
    <path d="M4 12.6111L8.92308 17.5L20 6.5" stroke="currentColor" stroke-width="2"
      stroke-linecap="round" stroke-linejoin="round"></path>
  </symbol>

  <!-- link -->

  <symbol fill="none" xmlns="http://www.w3.org/2000/svg" viewBox="0 0 24 24"
    id="link">
    <path
      d="M14 12C14 14.7614 11.7614 17 9 17H7C4.23858 17 2 14.7614 2 12C2 9.23858 4.23858 7 7 7H7.5M10 12C10 9.23858 12.2386 7 15 7H17C19.7614 7 22 9.23858 22 12C22 14.7614 19.7614 17 17 17H16.5"
      stroke="currentColor" stroke-width="2" stroke-linecap="round"></path>
  </symbol>

  <!-- color paint -->

  <symbol fill="currentColor" xmlns="http://www.w3.org/2000/svg" viewBox="0 0 24 24"
    id="color-paint">
    <path
      d="M22,7V9a3,3,0,0,1-3,3H14a1,1,0,0,0-1,1h1a1,1,0,0,1,1,1v7a1,1,0,0,1-1,1H10a1,1,0,0,1-1-1V14a1,1,0,0,1,1-1h1a3,3,0,0,1,3-3h5a1,1,0,0,0,1-1V7a1,1,0,0,0-1-1H17.816A2.99,2.99,0,0,1,15,8H5A3,3,0,0,1,5,2H15a2.99,2.99,0,0,1,2.816,2H19A3,3,0,0,1,22,7ZM3.7,16h.6A1.891,1.891,0,0,0,6,13.963a2.324,2.324,0,0,0-.325-1.2L4,10,2.325,12.764A2.324,2.324,0,0,0,2,13.963,1.891,1.891,0,0,0,3.7,16Z"></path>
  </symbol>

  <!-- color picker -->

  <svg width="0" height="0" class="hidden">
    <symbol fill="currentColor" xmlns="http://www.w3.org/2000/svg" viewBox="0 0 24 24"
      id="color-picker">
      <path
        d="M20 14c-.092.064-2 2.083-2 3.5 0 1.494.949 2.448 2 2.5.906.044 2-.891 2-2.5 0-1.5-1.908-3.436-2-3.5zM9.586 20c.378.378.88.586 1.414.586s1.036-.208 1.414-.586l7-7-.707-.707L11 4.586 8.707 2.293 7.293 3.707 9.586 6 4 11.586c-.378.378-.586.88-.586 1.414s.208 1.036.586 1.414L9.586 20zM11 7.414 16.586 13H5.414L11 7.414z"></path>
    </symbol>
  </svg>

  <!-- sticky note -->

  <symbol fill="none" xmlns="http://www.w3.org/2000/svg" viewBox="0 0 24 24"
    id="sticky-note">
    <path
      d="M15 22H12C7.28595 22 4.92893 22 3.46447 20.5355C2 19.0711 2 16.714 2 12C2 7.28595 2 4.92893 3.46447 3.46447C4.92893 2 7.28595 2 12 2C16.714 2 19.0711 2 20.5355 3.46447C21.5093 4.43821 21.8356 5.80655 21.9449 8M15 22C18.866 22 22 18.866 22 15M15 22C15 20.1387 15 19.2081 15.2447 18.4549C15.7393 16.9327 16.9327 15.7393 18.4549 15.2447C19.2081 15 20.1387 15 22 15M22 12V15"
      stroke="currentColor" stroke-width="1.5" stroke-linecap="round"></path>
  </symbol>

  <!-- image -->

  <symbol fill="none" xmlns="http://www.w3.org/2000/svg" viewBox="0 0 24 24" id="image">
    <path
      d="M3 7C3 4.79086 4.79086 3 7 3H17C19.2091 3 21 4.79086 21 7V17C21 19.2091 19.2091 21 17 21H7C4.79086 21 3 19.2091 3 17V7Z"
      stroke="currentColor" stroke-width="2"></path>
    <path
      d="M9 11C10.1046 11 11 10.1046 11 9C11 7.89543 10.1046 7 9 7C7.89543 7 7 7.89543 7 9C7 10.1046 7.89543 11 9 11Z"
      stroke="currentColor" stroke-width="2" stroke-linecap="round" stroke-linejoin="round"></path>
    <path
      d="M4 20L6.87381 16.4077C7.51098 15.6113 8.65134 15.4342 9.5 16C10.3487 16.5658 11.489 16.3887 12.1262 15.5922L13.7254 13.5933C14.4252 12.7185 15.7069 12.5891 16.5675 13.3062L21 17"
      stroke="currentColor" stroke-width="2"></path>
  </symbol>

  <!-- alignment -->

  <symbol fill="none" xmlns="http://www.w3.org/2000/svg" viewBox="0 0 24 24"
    id="align-center">
    <path
      d="M17 10.75H7C6.80109 10.75 6.61032 10.671 6.46967 10.5303C6.32902 10.3897 6.25 10.1989 6.25 10C6.25 9.80109 6.32902 9.61032 6.46967 9.46967C6.61032 9.32902 6.80109 9.25 7 9.25H17C17.1989 9.25 17.3897 9.32902 17.5303 9.46967C17.671 9.61032 17.75 9.80109 17.75 10C17.75 10.1989 17.671 10.3897 17.5303 10.5303C17.3897 10.671 17.1989 10.75 17 10.75Z"
      fill="currentColor"></path>
    <path
      d="M20 6.75H4C3.80109 6.75 3.61032 6.67098 3.46967 6.53033C3.32902 6.38968 3.25 6.19891 3.25 6C3.25 5.80109 3.32902 5.61032 3.46967 5.46967C3.61032 5.32902 3.80109 5.25 4 5.25H20C20.1989 5.25 20.3897 5.32902 20.5303 5.46967C20.671 5.61032 20.75 5.80109 20.75 6C20.75 6.19891 20.671 6.38968 20.5303 6.53033C20.3897 6.67098 20.1989 6.75 20 6.75Z"
      fill="currentColor"></path>
    <path
      d="M20 14.75H4C3.80109 14.75 3.61032 14.671 3.46967 14.5303C3.32902 14.3897 3.25 14.1989 3.25 14C3.25 13.8011 3.32902 13.6103 3.46967 13.4697C3.61032 13.329 3.80109 13.25 4 13.25H20C20.1989 13.25 20.3897 13.329 20.5303 13.4697C20.671 13.6103 20.75 13.8011 20.75 14C20.75 14.1989 20.671 14.3897 20.5303 14.5303C20.3897 14.671 20.1989 14.75 20 14.75Z"
      fill="currentColor"></path>
    <path
      d="M17 18.75H7C6.80109 18.75 6.61032 18.671 6.46967 18.5303C6.32902 18.3897 6.25 18.1989 6.25 18C6.25 17.8011 6.32902 17.6103 6.46967 17.4697C6.61032 17.329 6.80109 17.25 7 17.25H17C17.1989 17.25 17.3897 17.329 17.5303 17.4697C17.671 17.6103 17.75 17.8011 17.75 18C17.75 18.1989 17.671 18.3897 17.5303 18.5303C17.3897 18.671 17.1989 18.75 17 18.75Z"
      fill="currentColor"></path>
  </symbol>
  <symbol fill="none" xmlns="http://www.w3.org/2000/svg" viewBox="0 0 24 24"
    id="align-justify">
    <path
      d="M20 10.75H4C3.80109 10.75 3.61032 10.671 3.46967 10.5303C3.32902 10.3897 3.25 10.1989 3.25 10C3.25 9.80109 3.32902 9.61032 3.46967 9.46967C3.61032 9.32902 3.80109 9.25 4 9.25H20C20.1989 9.25 20.3897 9.32902 20.5303 9.46967C20.671 9.61032 20.75 9.80109 20.75 10C20.75 10.1989 20.671 10.3897 20.5303 10.5303C20.3897 10.671 20.1989 10.75 20 10.75Z"
      fill="currentColor"></path>
    <path
      d="M20 6.75H4C3.80109 6.75 3.61032 6.67098 3.46967 6.53033C3.32902 6.38968 3.25 6.19891 3.25 6C3.25 5.80109 3.32902 5.61032 3.46967 5.46967C3.61032 5.32902 3.80109 5.25 4 5.25H20C20.1989 5.25 20.3897 5.32902 20.5303 5.46967C20.671 5.61032 20.75 5.80109 20.75 6C20.75 6.19891 20.671 6.38968 20.5303 6.53033C20.3897 6.67098 20.1989 6.75 20 6.75Z"
      fill="currentColor"></path>
    <path
      d="M20 14.75H4C3.80109 14.75 3.61032 14.671 3.46967 14.5303C3.32902 14.3897 3.25 14.1989 3.25 14C3.25 13.8011 3.32902 13.6103 3.46967 13.4697C3.61032 13.329 3.80109 13.25 4 13.25H20C20.1989 13.25 20.3897 13.329 20.5303 13.4697C20.671 13.6103 20.75 13.8011 20.75 14C20.75 14.1989 20.671 14.3897 20.5303 14.5303C20.3897 14.671 20.1989 14.75 20 14.75Z"
      fill="currentColor"></path>
    <path
      d="M20 18.75H4C3.80109 18.75 3.61032 18.671 3.46967 18.5303C3.32902 18.3897 3.25 18.1989 3.25 18C3.25 17.8011 3.32902 17.6103 3.46967 17.4697C3.61032 17.329 3.80109 17.25 4 17.25H20C20.1989 17.25 20.3897 17.329 20.5303 17.4697C20.671 17.6103 20.75 17.8011 20.75 18C20.75 18.1989 20.671 18.3897 20.5303 18.5303C20.3897 18.671 20.1989 18.75 20 18.75Z"
      fill="currentColor"></path>
  </symbol>
  <symbol fill="none" xmlns="http://www.w3.org/2000/svg" viewBox="0 0 24 24"
    id="align-left">
    <path
      d="M13.93 11H3.92999C3.73108 11 3.54031 10.921 3.39966 10.7803C3.25901 10.6397 3.17999 10.4489 3.17999 10.25C3.17999 10.0511 3.25901 9.86032 3.39966 9.71967C3.54031 9.57902 3.73108 9.5 3.92999 9.5H13.93C14.1289 9.5 14.3197 9.57902 14.4603 9.71967C14.601 9.86032 14.68 10.0511 14.68 10.25C14.68 10.4489 14.601 10.6397 14.4603 10.7803C14.3197 10.921 14.1289 11 13.93 11Z"
      fill="currentColor"></path>
    <path
      d="M20.07 7H4.07001C3.8711 7 3.68033 6.92098 3.53968 6.78033C3.39903 6.63968 3.32001 6.44891 3.32001 6.25C3.32001 6.05109 3.39903 5.86032 3.53968 5.71967C3.68033 5.57902 3.8711 5.5 4.07001 5.5H20.07C20.2689 5.5 20.4597 5.57902 20.6003 5.71967C20.741 5.86032 20.82 6.05109 20.82 6.25C20.82 6.44891 20.741 6.63968 20.6003 6.78033C20.4597 6.92098 20.2689 7 20.07 7Z"
      fill="currentColor"></path>
    <path
      d="M20.07 15H4.07001C3.8711 15 3.68033 14.921 3.53968 14.7803C3.39903 14.6397 3.32001 14.4489 3.32001 14.25C3.32001 14.0511 3.39903 13.8603 3.53968 13.7197C3.68033 13.579 3.8711 13.5 4.07001 13.5H20.07C20.2689 13.5 20.4597 13.579 20.6003 13.7197C20.741 13.8603 20.82 14.0511 20.82 14.25C20.82 14.4489 20.741 14.6397 20.6003 14.7803C20.4597 14.921 20.2689 15 20.07 15Z"
      fill="currentColor"></path>
    <path
      d="M13.93 19H3.92999C3.73108 19 3.54031 18.921 3.39966 18.7803C3.25901 18.6397 3.17999 18.4489 3.17999 18.25C3.17999 18.0511 3.25901 17.8603 3.39966 17.7197C3.54031 17.579 3.73108 17.5 3.92999 17.5H13.93C14.1289 17.5 14.3197 17.579 14.4603 17.7197C14.601 17.8603 14.68 18.0511 14.68 18.25C14.68 18.4489 14.601 18.6397 14.4603 18.7803C14.3197 18.921 14.1289 19 13.93 19Z"
      fill="currentColor"></path>
  </symbol>
  <symbol fill="none" xmlns="http://www.w3.org/2000/svg" viewBox="0 0 24 24"
    id="align-right">
    <path
      d="M20 10.75H10C9.80109 10.75 9.61032 10.671 9.46967 10.5303C9.32902 10.3897 9.25 10.1989 9.25 10C9.25 9.80109 9.32902 9.61032 9.46967 9.46967C9.61032 9.32902 9.80109 9.25 10 9.25H20C20.1989 9.25 20.3897 9.32902 20.5303 9.46967C20.671 9.61032 20.75 9.80109 20.75 10C20.75 10.1989 20.671 10.3897 20.5303 10.5303C20.3897 10.671 20.1989 10.75 20 10.75Z"
      fill="currentColor"></path>
    <path
      d="M20.07 6.75H4.07001C3.8711 6.75 3.68033 6.67098 3.53968 6.53033C3.39903 6.38968 3.32001 6.19891 3.32001 6C3.32001 5.80109 3.39903 5.61032 3.53968 5.46967C3.68033 5.32902 3.8711 5.25 4.07001 5.25H20.07C20.2689 5.25 20.4597 5.32902 20.6003 5.46967C20.741 5.61032 20.82 5.80109 20.82 6C20.82 6.19891 20.741 6.38968 20.6003 6.53033C20.4597 6.67098 20.2689 6.75 20.07 6.75Z"
      fill="currentColor"></path>
    <path
      d="M20.07 14.75H4.07001C3.8711 14.75 3.68033 14.671 3.53968 14.5303C3.39903 14.3897 3.32001 14.1989 3.32001 14C3.32001 13.8011 3.39903 13.6103 3.53968 13.4697C3.68033 13.329 3.8711 13.25 4.07001 13.25H20.07C20.2689 13.25 20.4597 13.329 20.6003 13.4697C20.741 13.6103 20.82 13.8011 20.82 14C20.82 14.1989 20.741 14.3897 20.6003 14.5303C20.4597 14.671 20.2689 14.75 20.07 14.75Z"
      fill="currentColor"></path>
    <path
      d="M20 18.75H10C9.80109 18.75 9.61032 18.671 9.46967 18.5303C9.32902 18.3897 9.25 18.1989 9.25 18C9.25 17.8011 9.32902 17.6103 9.46967 17.4697C9.61032 17.329 9.80109 17.25 10 17.25H20C20.1989 17.25 20.3897 17.329 20.5303 17.4697C20.671 17.6103 20.75 17.8011 20.75 18C20.75 18.1989 20.671 18.3897 20.5303 18.5303C20.3897 18.671 20.1989 18.75 20 18.75Z"
      fill="currentColor"></path>
  </symbol>

</svg>