<svg width="0" height="0" class="hidden">

  <!-- Heading -->

  <symbol fill="none" xmlns="http://www.w3.org/2000/svg" viewBox="0 0 24 24" id="h1">
    <g id="Edit / Heading_H1">
      <path id="Vector" d="M16 10L19 9L19 19M3 5V12M3 12V19M3 12H11M11 5V12M11 12V19"
        stroke="currentColor" stroke-width="2" stroke-linecap="round" stroke-linejoin="round"></path>
    </g>
  </symbol>
  <symbol fill="none" xmlns="http://www.w3.org/2000/svg" viewBox="0 0 24 24" id="h2">
    <g id="Edit / Heading_H2">
      <path id="Vector"
        d="M15 12.5V12C15 10.3431 16.3431 9 18 9H18.1716C19.7337 9 20.9996 10.2665 20.9996 11.8286C20.9996 12.5788 20.702 13.2982 20.1716 13.8286L15 19.0002L21 19M3 5V12M3 12V19M3 12H11M11 5V12M11 12V19"
        stroke="currentColor" stroke-width="2" stroke-linecap="round" stroke-linejoin="round"></path>
    </g>
  </symbol>
  <symbol fill="none" xmlns="http://www.w3.org/2000/svg" viewBox="0 0 24 24" id="h3">
    <g id="Edit / Heading_H3">
      <path id="Vector"
        d="M15 9H21L17 13H18C19.6569 13 21 14.3431 21 16C21 17.6569 19.6569 19 18 19C17.3793 19 16.7738 18.8077 16.2671 18.4492C15.7604 18.0907 15.3775 17.5838 15.1709 16.9985M3 5V12M3 12V19M3 12H11M11 5V12M11 12V19"
        stroke="currentColor" stroke-width="2" stroke-linecap="round" stroke-linejoin="round"></path>
    </g>
  </symbol>
  <symbol fill="none" xmlns="http://www.w3.org/2000/svg" viewBox="0 0 24 24" id="h4">
    <g id="Edit / Heading_H4">
      <path id="Vector"
        d="M18 9L15.5 17H20M20 17H21M20 17V14M20 17V19M3 5V12M3 12V19M3 12H11M11 5V12M11 12V19"
        stroke="currentColor" stroke-width="2" stroke-linecap="round" stroke-linejoin="round"></path>
    </g>
  </symbol>
  <!-- <symbol fill="none" xmlns="http://www.w3.org/2000/svg" viewBox="0 0 24 24" id="h5">
    <g id="Edit / Heading_H5">
      <path id="Vector"
        d="M21 9H17L15.75 14.0158C15.8285 13.9268 15.912 13.8429 16 13.7642C16.3509 13.4504 16.7731 13.2209
  17.2346 13.0991C17.9263 12.9166 18.6611 12.9876 19.3053 13.2987C19.9495 13.6099 20.4608 14.1414
  20.7479 14.7967C21.035 15.452 21.0788 16.188 20.8707 16.8725C20.6627 17.557 20.2165 18.1447
  19.6133 18.5295C19.0101 18.9142 18.2895 19.0704 17.5811 18.9704C16.8726 18.8705 16.2232 18.521
  15.75 17.9844M3 5V12M3 12V19M3 12H11M11 5V12M11 12V19"
        stroke="currentColor" stroke-width="2" stroke-linecap="round" stroke-linejoin="round"></path>
    </g>
  </symbol>
  <symbol fill="none" xmlns="http://www.w3.org/2000/svg" viewBox="0 0 24 24" id="h6">
    <g id="Edit / Heading_H6">
      <path id="Vector"
        d="M15.4024 14.5249C14.574 15.9516 15.0656 17.7759 16.5005 18.5997C17.9354 19.4234 19.7701 18.9346
  20.5986 17.5078C21.427 16.0811 20.9352 14.2571 19.5003 13.4334C18.0655 12.6097 16.2309 13.0982
  15.4024 14.5249ZM15.4024 14.5249L18.9998 8M3 5V12M3 12V19M3 12H11M11 5V12M11 12V19"
        stroke="currentColor" stroke-width="2" stroke-linecap="round" stroke-linejoin="round"></path>
    </g>
  </symbol> -->

  <!-- Quote -->

  <symbol fill="currentColor" xmlns="http://www.w3.org/2000/svg" viewBox="0 0 24 24"
    id="quote">
    <path
      d="M15 20a1 1 0 0 1-.386-1.922A8.726 8.726 0 0 0 20 10v-.5a2.5 2.5 0 1 0-2.5 2.5 1 1 0 0 1 0 2A4.5 4.5 0 1 1 22 9.5v.5a10.718 10.718 0 0 1-6.614 9.921A1 1 0 0 1 15 20zM5 20a1 1 0 0 1-.386-1.922A8.726 8.726 0 0 0 10 10v-.5A2.5 2.5 0 1 0 7.5 12a1 1 0 0 1 0 2A4.5 4.5 0 1 1 12 9.5v.5a10.718 10.718 0 0 1-6.614 9.921A1 1 0 0 1 5 20z"></path>
  </symbol>

  <!-- List -->

  <symbol fill="none" xmlns="http://www.w3.org/2000/svg" viewBox="0 0 24 24"
    id="bullet">
    <path
      d="M8 6.00067L21 6.00139M8 12.0007L21 12.0015M8 18.0007L21 18.0015M3.5 6H3.51M3.5 12H3.51M3.5 18H3.51M4 6C4 6.27614 3.77614 6.5 3.5 6.5C3.22386 6.5 3 6.27614 3 6C3 5.72386 3.22386 5.5 3.5 5.5C3.77614 5.5 4 5.72386 4 6ZM4 12C4 12.2761 3.77614 12.5 3.5 12.5C3.22386 12.5 3 12.2761 3 12C3 11.7239 3.22386 11.5 3.5 11.5C3.77614 11.5 4 11.7239 4 12ZM4 18C4 18.2761 3.77614 18.5 3.5 18.5C3.22386 18.5 3 18.2761 3 18C3 17.7239 3.22386 17.5 3.5 17.5C3.77614 17.5 4 17.7239 4 18Z"
      stroke="currentColor" stroke-width="2" stroke-linecap="round" stroke-linejoin="round"></path>
  </symbol>
  <symbol fill="none" xmlns="http://www.w3.org/2000/svg" viewBox="0 0 24 24"
    id="check">
    <path
      d="M11 6L21 6.00072M11 12L21 12.0007M11 18L21 18.0007M3 11.9444L4.53846 13.5L8 10M3 5.94444L4.53846 7.5L8 4M4.5 18H4.51M5 18C5 18.2761 4.77614 18.5 4.5 18.5C4.22386 18.5 4 18.2761 4 18C4 17.7239 4.22386 17.5 4.5 17.5C4.77614 17.5 5 17.7239 5 18Z"
      stroke="currentColor" stroke-width="2" stroke-linecap="round" stroke-linejoin="round"></path>
  </symbol>
  <symbol fill="none" xmlns="http://www.w3.org/2000/svg" viewBox="0 0 24 24"
    id="number">
    <path
      d="M10 6L21 6.00066M10 12L21 12.0007M10 18L21 18.0007M3 5L5 4V10M5 10H3M5 10H7M7 20H3L6.41274 17.0139C6.78593 16.6873 7 16.2156 7 15.7197C7 14.7699 6.23008 14 5.28033 14H5C4.06808 14 3.28503 14.6374 3.06301 15.5"
      stroke="currentColor" stroke-width="2" stroke-linecap="round" stroke-linejoin="round"></path>
  </symbol>

  <!-- Chevron -->

  <symbol xmlns="http://www.w3.org/2000/svg" fill="none" viewBox="0 0 20 20"
    id="chevron-left">
    <path stroke="currentColor" stroke-linecap="round" stroke-linejoin="round" stroke-width="2"
      d="M13 4l-6 6 6 6"></path>
  </symbol>
  <symbol xmlns="http://www.w3.org/2000/svg" fill="none" viewBox="0 0 20 20"
    id="chevron-right">
    <path stroke="currentColor" stroke-linecap="round" stroke-linejoin="round" stroke-width="2"
      d="M7 16l6-6-6-6"></path>
  </symbol>
  <symbol xmlns="http://www.w3.org/2000/svg" fill="none" viewBox="0 0 20 20"
    id="chevron-down">
    <path stroke="currentColor" stroke-linecap="round" stroke-linejoin="round" stroke-width="2"
      d="M4 7l6 6 6-6"></path>
  </symbol>
  <symbol xmlns="http://www.w3.org/2000/svg" fill="none" viewBox="0 0 20 20"
    id="chevron-up">
    <path stroke="currentColor" stroke-linecap="round" stroke-linejoin="round" stroke-width="2"
      d="M16 13l-6-6-6 6"></path>
  </symbol>
</svg>